<?xml version="1.0" encoding="UTF-8" standalone="no"?>
<svg
   id="Layer_1"
   data-name="Layer 1"
   viewBox="0 0 511.99999 512.00002"
   version="1.1"
   sodipodi:docname="logo-tipify-2.svg"
   width="512"
   height="512"
   inkscape:version="1.4.2 (f4327f4, 2025-05-13)"
   xmlns:inkscape="http://www.inkscape.org/namespaces/inkscape"
   xmlns:sodipodi="http://sodipodi.sourceforge.net/DTD/sodipodi-0.dtd"
   xmlns="http://www.w3.org/2000/svg"
   xmlns:svg="http://www.w3.org/2000/svg">
  <sodipodi:namedview
     id="namedview5"
     pagecolor="#ffffff"
     bordercolor="#000000"
     borderopacity="0.25"
     inkscape:showpageshadow="2"
     inkscape:pageopacity="0.0"
     inkscape:pagecheckerboard="0"
     inkscape:deskcolor="#d1d1d1"
     inkscape:zoom="1.980645"
     inkscape:cx="307.22316"
     inkscape:cy="231.49025"
     inkscape:window-width="3840"
     inkscape:window-height="2089"
     inkscape:window-x="-8"
     inkscape:window-y="-8"
     inkscape:window-maximized="1"
     inkscape:current-layer="Layer_1" />
  <defs
     id="defs1">
    <style
       id="style1">
      .cls-1 {
        fill: #825ada;
      }
    </style>
  </defs>
  <path
     class="cls-1"
     d="M 50.920292,238.54182 C 61.694739,147.24199 143.69374,75.494217 234.18201,69.09789 206.31154,45.957921 219.841,1.4826242 257.08706,1.5146592 c 35.96466,0.032035 49.49412,45.4790608 21.83721,67.5832308 90.68049,6.940922 172.01742,77.95189 183.26172,169.44393 z"
     id="path1"
     style="stroke-width:1.06783" />
  <path
     class="cls-1"
     d="m 406.78674,290.75892 c -0.42713,3.82285 1.06784,7.3467 1.12123,11.13751 0.80088,57.1932 -2.63755,114.24759 -0.26696,171.61164 -3.353,10.95598 4.18591,27.00553 -7.28263,34.05324 -6.05462,3.72674 -12.1306,3.07536 -18.32403,0.28831 -7.83791,-3.52385 -35.47346,-26.02312 -39.78751,-26.39686 -0.92901,-0.0747 -1.7726,0.0214 -2.5628,0.55528 l -32.87862,25.76684 c -4.51694,2.72297 -10.31528,1.81531 -14.77882,-0.50189 -5.76631,-3.00061 -33.55136,-26.69585 -36.01805,-26.68517 l -35.29193,27.38994 c -6.81278,3.36368 -11.6821,1.29208 -17.57655,-2.38127 -5.07221,-3.17146 -30.67888,-24.98732 -33.42321,-24.83782 -12.70723,7.45348 -25.66006,19.44526 -38.57017,26.09787 -7.1011,3.65199 -12.77131,5.11492 -19.89376,0.0534 -1.80464,-1.2814 -6.01191,-7.06906 -6.01191,-8.90574 V 290.73756 H 31.208071 c -4.367442,0 -11.287008,-7.70976 -12.792654,-11.71414 -4.217945,-11.27633 2.626872,-24.27187 14.917644,-25.58531 l 450.198929,0.50188 c 14.28763,5.45664 16.26312,25.11546 3.70539,33.60475 -0.75816,0.51256 -6.04394,3.18214 -6.40701,3.18214 h -74.0543 z M 380.15496,472.97416 V 281.69301 c 0,-2.56281 -7.03703,-0.52324 -9.00185,-0.48053 -77.5568,1.79396 -155.92515,-0.45917 -233.38585,-0.90766 -1.84736,-0.0107 -3.85488,1.16394 -5.86241,0.86495 -0.51256,0.3951 1.06783,1.35615 1.06783,1.59107 v 187.54373 c 0,0.18153 -2.70162,3.68403 0.51256,2.64823 8.55335,-2.74433 22.55266,-18.54828 31.73604,-21.54889 3.97234,-1.30276 9.15134,-1.52701 12.88876,0.39509 4.94407,3.13944 33.30575,25.49989 36.21026,25.21157 l 36.9791,-25.83091 c 3.66267,-1.19597 8.60674,-1.08919 12.04517,0.61934 10.32595,5.12561 22.72351,18.78321 33.33778,24.20781 0.98241,0.50188 1.83668,1.23868 3.04333,1.17461 3.05401,-0.0961 28.22286,-21.51686 34.96089,-24.65629 4.83729,-2.25313 9.84544,-3.19282 14.93901,-0.70477 l 30.52938,21.14312 z"
     id="path2"
     style="stroke-width:1.06783" />
  <path
     class="cls-1"
     d="m 265.60838,296.08741 c 3.04332,0.9397 0.9824,12.94215 1.64446,15.94277 15.9748,1.45225 28.2015,14.51186 26.58907,30.94583 h -22.37112 c -0.74749,0 0.10678,-9.32219 -7.44281,-12.26941 -17.85419,-6.98364 -34.35223,12.53637 -11.9811,20.50242 15.27003,5.43527 36.77621,5.3712 42.56387,24.56018 6.16141,20.43835 -6.78074,38.29254 -27.40062,40.7272 v 14.91765 H 244.839 V 416.4964 c -12.94215,-1.15326 -24.48544,-8.91641 -27.45402,-22.09349 -0.36306,-1.60175 -1.47361,-9.87746 0.27764,-9.87746 h 21.83721 c 0.25628,0 0.13882,3.5986 0.71545,5.13628 5.1256,13.91388 37.66251,11.42582 31.84282,-7.32534 -2.6162,-8.4359 -28.69271,-11.05209 -37.21403,-14.9924 -27.87047,-12.88876 -18.90067,-51.68318 9.98425,-55.28178 v -15.98548 c 5.30714,1.01445 16.31651,-1.3775 20.78006,0 z"
     id="path3"
     style="stroke-width:1.06783" />
  <path
     class="cls-1"
     d="m 160.35195,373.03555 c 10.67835,-2.38127 28.56457,1.12122 40.04379,0 6.89821,3.04333 6.93024,15.32342 -0.86495,16.80771 -4.34608,0.83291 -34.98225,0.72613 -39.16816,-0.20289 -8.15825,-1.826 -8.17961,-14.76815 0,-16.59414 z"
     id="path4"
     style="stroke-width:1.06783" />
  <path
     class="cls-1"
     d="m 160.35195,320.81845 c 4.1432,-0.93969 34.82208,-0.92901 38.97595,0 9.00185,2.02889 7.92333,15.38749 -0.90766,16.765 -5.54206,0.86495 -31.87485,0.98241 -37.17131,0 -9.35422,-1.70853 -8.84166,-14.97104 -0.89698,-16.77568 z"
     id="path5"
     style="stroke-width:1.06783" />
</svg>
