<?xml version="1.0" encoding="UTF-8"?>
<svg id="Layer_1" data-name="Layer 1" xmlns="http://www.w3.org/2000/svg" viewBox="0 0 448.01 476.36">
  <defs>
    <style>
      .cls-1 {
        fill: #825ada;
      }
    </style>
  </defs>
  <path class="cls-1" d="M31.61,221.97c10.09-85.5,86.88-152.69,171.62-158.68C177.13,41.62,189.8-.03,224.68,0c33.68.03,46.35,42.59,20.45,63.29,84.92,6.5,161.09,73,171.62,158.68H31.61Z"/>
  <path class="cls-1" d="M364.87,270.87c-.4,3.58,1,6.88,1.05,10.43.75,53.56-2.47,106.99-.25,160.71-3.14,10.26,3.92,25.29-6.82,31.89-5.67,3.49-11.36,2.88-17.16.27-7.34-3.3-33.22-24.37-37.26-24.72-.87-.07-1.66.02-2.4.52l-30.79,24.13c-4.23,2.55-9.66,1.7-13.84-.47-5.4-2.81-31.42-25-33.73-24.99l-33.05,25.65c-6.38,3.15-10.94,1.21-16.46-2.23-4.75-2.97-28.73-23.4-31.3-23.26-11.9,6.98-24.03,18.21-36.12,24.44-6.65,3.42-11.96,4.79-18.63.05-1.69-1.2-5.63-6.62-5.63-8.34v-194.1H13.15c-4.09,0-10.57-7.22-11.98-10.97-3.95-10.56,2.46-22.73,13.97-23.96l421.6.47c13.38,5.11,15.23,23.52,3.47,31.47-.71.48-5.66,2.98-6,2.98h-69.35ZM339.93,441.51v-179.13c0-2.4-6.59-.49-8.43-.45-72.63,1.68-146.02-.43-218.56-.85-1.73-.01-3.61,1.09-5.49.81-.48.37,1,1.27,1,1.49v175.63c0,.17-2.53,3.45.48,2.48,8.01-2.57,21.12-17.37,29.72-20.18,3.72-1.22,8.57-1.43,12.07.37,4.63,2.94,31.19,23.88,33.91,23.61l34.63-24.19c3.43-1.12,8.06-1.02,11.28.58,9.67,4.8,21.28,17.59,31.22,22.67.92.47,1.72,1.16,2.85,1.1,2.86-.09,26.43-20.15,32.74-23.09,4.53-2.11,9.22-2.99,13.99-.66l28.59,19.8Z"/>
  <path class="cls-1" d="M232.66,275.86c2.85.88.92,12.12,1.54,14.93,14.96,1.36,26.41,13.59,24.9,28.98h-20.95c-.7,0,.1-8.73-6.97-11.49-16.72-6.54-32.17,11.74-11.22,19.2,14.3,5.09,34.44,5.03,39.86,23,5.77,19.14-6.35,35.86-25.66,38.14v13.97h-20.95v-13.97c-12.12-1.08-22.93-8.35-25.71-20.69-.34-1.5-1.38-9.25.26-9.25h20.45c.24,0,.13,3.37.67,4.81,4.8,13.03,35.27,10.7,29.82-6.86-2.45-7.9-26.87-10.35-34.85-14.04-26.1-12.07-17.7-48.4,9.35-51.77v-14.97c4.97.95,15.28-1.29,19.46,0Z"/>
  <path class="cls-1" d="M134.09,347.92c10-2.23,26.75,1.05,37.5,0,6.46,2.85,6.49,14.35-.81,15.74-4.07.78-32.76.68-36.68-.19-7.64-1.71-7.66-13.83,0-15.54Z"/>
  <path class="cls-1" d="M134.09,299.02c3.88-.88,32.61-.87,36.5,0,8.43,1.9,7.42,14.41-.85,15.7-5.19.81-29.85.92-34.81,0-8.76-1.6-8.28-14.02-.84-15.71Z"/>
</svg>